<svg width="1094" height="213" viewBox="0 0 1094 213" fill="none" xmlns="http://www.w3.org/2000/svg">
<path d="M47.6078 0H11.9744C8.79861 0 5.75287 1.26175 3.50723 3.50793C1.26159 5.75411 0 8.80026 0 11.9768V83.2608C-1.45133e-06 84.8337 0.309711 86.3914 0.911479 87.8445C1.51325 89.2977 2.39527 90.6175 3.5072 91.7297C4.61912 92.8419 5.93917 93.7246 7.39197 94.3265C8.84477 94.9285 10.4019 95.2382 11.9744 95.2382H47.6078C60.2342 95.2382 72.3435 90.221 81.2717 81.2907C90.1999 72.3604 95.2157 60.2485 95.2157 47.6191C95.2157 34.9897 90.1999 22.8773 81.2717 13.947C72.3435 5.01666 60.2342 0 47.6078 0Z" fill="#F4C345"/>
<path d="M79.3466 23.8101H43.7131C42.1406 23.8101 40.5835 24.1198 39.1307 24.7218C37.6779 25.3237 36.3579 26.2058 35.2459 27.318C34.134 28.4302 33.252 29.7506 32.6502 31.2038C32.0484 32.6569 31.7387 34.2146 31.7387 35.7875V107.071C31.7387 110.247 33.0003 113.294 35.2459 115.54C37.4915 117.787 40.5373 119.048 43.7131 119.048H79.3466C85.5985 119.048 91.7892 117.817 97.5653 115.424C103.341 113.031 108.59 109.523 113.01 105.101C117.431 100.679 120.938 95.4296 123.33 89.6522C125.723 83.8748 126.954 77.6826 126.954 71.4292C126.954 58.7998 121.939 46.6879 113.01 37.7576C104.082 28.8273 91.9729 23.8101 79.3466 23.8101Z" fill="#FF7E69"/>
<path d="M111.085 47.6202H75.4519C73.8794 47.6202 72.3222 47.9299 70.8694 48.5318C69.4166 49.1338 68.0966 50.0159 66.9846 51.1281C65.8727 52.2403 64.9907 53.5607 64.3889 55.0139C63.7872 56.467 63.4774 58.0241 63.4774 59.597V130.881C63.4774 134.058 64.739 137.104 66.9846 139.35C69.2303 141.597 72.2759 142.858 75.4517 142.858H111.085C123.712 142.858 135.821 137.841 144.749 128.911C153.677 119.981 158.693 107.869 158.693 95.2393C158.693 82.6099 153.677 70.4975 144.749 61.5672C135.821 52.6369 123.712 47.6202 111.085 47.6202Z" fill="#391145"/>
<path d="M142.823 71.4292H107.19C104.014 71.4292 100.968 72.691 98.7228 74.9371C96.4772 77.1833 95.2156 80.23 95.2156 83.4066V154.69C95.2156 157.867 96.4771 160.913 98.7227 163.159C100.968 165.406 104.014 166.667 107.19 166.667H142.823C155.45 166.667 167.559 161.65 176.487 152.72C185.415 143.79 190.431 131.678 190.431 119.048C190.431 106.419 185.415 94.307 176.487 85.3767C167.559 76.4464 155.45 71.4292 142.823 71.4292Z" fill="#52A8CE"/>
<path d="M145.434 211.945L162.106 195.825C163.554 194.427 165.304 193.38 167.221 192.765C169.138 192.151 171.17 191.986 173.161 192.282L195.708 195.627C196.436 195.738 197.181 195.631 197.848 195.319C198.516 195.007 199.076 194.505 199.458 193.876C199.841 193.246 200.028 192.517 199.997 191.781C199.965 191.045 199.717 190.335 199.283 189.74L145.85 116.849C145.384 116.213 144.729 115.74 143.979 115.498C143.229 115.256 142.421 115.257 141.672 115.501C140.922 115.745 140.268 116.218 139.804 116.855C139.339 117.492 139.087 118.259 139.084 119.048V209.269C139.087 210.004 139.305 210.721 139.713 211.332C140.12 211.943 140.698 212.421 141.375 212.706C142.051 212.991 142.797 213.071 143.519 212.936C144.24 212.801 144.906 212.456 145.434 211.945Z" fill="#391145"/>
<path d="M312.183 131.126L314.383 144.152H334.442V44.8452H311.278V80.054C307.525 72.4449 300.407 67.9309 289.536 67.9309C278.148 67.9309 268.83 73.0898 263.783 83.9232C261.195 89.469 259.901 96.1756 259.901 104.688V106.88C259.901 132.674 271.159 145.571 289.407 145.571C301.054 145.571 308.43 139.896 312.183 131.126ZM297.171 125.581C289.148 125.581 283.583 120.293 283.583 106.751V105.074C283.583 93.3382 288.76 87.2764 297.56 87.2764C306.101 87.2764 311.536 93.7252 311.536 105.074V106.751C311.536 119.39 305.842 125.581 297.171 125.581Z" fill="#391145"/>
<path d="M420.032 120.422H395.055C393.373 124.677 389.62 127.514 383.02 127.514C373.831 127.514 368.785 122.872 367.62 113.586H420.55V105.203C420.55 91.5321 415.502 79.9247 404.373 72.9601C398.808 69.478 391.561 67.8013 382.761 67.8013C367.102 67.8013 355.455 74.1209 348.984 85.7283C345.749 91.4028 344.196 98.2384 344.196 106.363V108.556C344.196 131.77 356.231 146.086 382.373 146.086C404.373 146.086 415.891 136.156 420.032 120.422ZM383.02 85.5992C391.82 85.5992 396.22 90.3713 397.255 98.8835H367.62C369.173 89.8555 374.349 85.5992 383.02 85.5992H383.02Z" fill="#391145"/>
<path d="M462.665 146.215C478.324 146.215 488.418 141.315 493.595 133.577C496.095 129.553 497.397 124.901 497.348 120.164C497.348 111.394 493.595 106.235 488.03 103.14C482.336 100.044 475.477 98.7547 468.877 97.8519C457.748 96.4331 451.406 95.6596 451.406 91.0166C451.406 87.4053 453.995 84.6973 461.242 84.6973C468.23 84.6973 472.242 87.2765 473.277 92.6932H496.442C494.242 77.6037 484.277 67.6729 461.501 67.6729C440.147 67.6729 428.759 77.7326 428.759 92.4351C428.759 101.463 432.383 106.622 438.077 109.588C443.642 112.683 450.5 113.844 456.971 114.747C463.183 115.392 468.877 116.166 471.983 117.842C472.727 118.175 473.357 118.72 473.794 119.408C474.231 120.096 474.457 120.897 474.442 121.712C474.442 125.839 471.336 128.289 463.83 128.289C456.065 128.289 451.536 125.194 449.983 119.132H425.653C428.112 136.414 440.147 146.215 462.665 146.215Z" fill="#391145"/>
<path d="M518.452 65.0937C528.159 65.0937 532.558 61.9981 532.558 53.4861C532.558 44.7161 527.77 41.75 518.452 41.75C508.876 41.75 504.346 44.7161 504.346 53.4861C504.346 62.2561 508.099 65.0937 518.452 65.0937Z" fill="#391145"/>
<path d="M574.495 175.75H575.533C604.001 175.75 616.036 165.432 616.036 149.053C616.036 134.995 606.59 126.612 585.495 126.612H569.448C561.296 126.612 558.966 125.71 558.966 123.13C558.966 121.196 559.873 120.164 563.885 119.519C565.827 119.39 568.672 119.132 572.425 119.132H576.824C599.345 119.132 612.156 110.362 612.156 93.4672V92.9512C612.156 81.602 605.295 73.9925 592.484 71.413C603.357 71.413 609.051 69.9944 611.249 65.7382C612.587 62.8323 613.209 59.6485 613.063 56.4528V54.2602H587.697V56.8398C587.697 63.0304 587.049 66.1256 583.944 67.2864C581.523 68.0827 578.986 68.4746 576.437 68.4469L574.495 68.5759C554.954 69.2208 542.272 77.3461 542.272 93.2092V93.3382C542.272 103.914 547.19 110.491 556.509 113.973C546.155 116.166 540.331 121.841 540.331 130.611C540.331 138.736 545.637 143.765 555.214 145.313C544.084 147.377 539.037 152.278 539.037 159.758C539.037 166.464 542.531 171.236 552.756 173.815C557.931 175.234 565.18 175.75 574.495 175.75ZM577.084 103.656C570.095 103.656 565.696 100.69 565.696 94.1123V93.5962C565.696 86.5029 570.614 83.2782 577.215 83.2782C583.813 83.2782 588.603 85.8578 588.603 93.4672V93.9827C588.603 100.56 584.201 103.656 577.084 103.656ZM577.472 159.242H574.238C564.013 159.242 560.389 156.275 560.389 152.793V152.664C560.389 148.666 565.048 146.216 572.813 145.829H584.332C593.003 145.829 595.72 148.022 595.72 151.504C595.721 156.018 590.674 159.242 577.472 159.242Z" fill="#391145"/>
<path d="M645.733 144.152V105.074C645.733 94.7564 648.97 88.0499 658.029 88.0499C666.7 88.0499 669.029 93.9824 669.029 103.268V144.152H692.841V96.5618C692.841 78.3772 684.17 67.8013 667.347 67.8013C655.699 67.8013 648.063 73.3471 644.051 81.9881L641.853 69.3489H621.793V144.152H645.733Z" fill="#391145"/>
<path d="M736.405 146.215C752.062 146.215 762.155 141.315 767.333 133.577C769.833 129.553 771.134 124.9 771.086 120.164C771.086 111.394 767.333 106.235 761.768 103.14C756.073 100.044 749.216 98.7547 742.615 97.8519C731.486 96.4331 725.145 95.6596 725.145 91.0166C725.145 87.4053 727.734 84.6973 734.979 84.6973C741.968 84.6973 745.98 87.2765 747.015 92.6932H770.179C767.981 77.6037 758.015 67.6729 735.238 67.6729C713.885 67.6729 702.496 77.7326 702.496 92.4351C702.496 101.463 706.12 106.622 711.814 109.588C717.38 112.683 724.238 113.844 730.711 114.747C736.921 115.392 742.615 116.166 745.72 117.842C746.464 118.175 747.095 118.719 747.532 119.407C747.97 120.095 748.195 120.897 748.181 121.712C748.181 125.839 745.073 128.289 737.568 128.289C729.804 128.289 725.273 125.194 723.722 119.132H699.391C701.852 136.414 713.885 146.215 736.405 146.215Z" fill="#391145"/>
<path d="M827.255 144.152V122.356H822.468C814.96 122.356 811.727 121.582 810.301 117.584C809.632 114.449 809.328 111.246 809.397 108.04V90.1141H827.255V69.3494H809.397V50.649H789.985C789.854 53.7442 789.597 57.7422 789.209 60.8375C788.562 67.286 786.748 69.2206 781.833 69.8655C779.411 70.398 776.936 70.6577 774.456 70.6395V90.1141H787.136V112.684C787.136 128.289 789.725 137.059 797.877 141.186C802.02 143.121 807.715 144.152 815.351 144.152H827.255Z" fill="#391145"/>
<path d="M837.143 144.152H861.214V111.007C861.214 101.979 862.769 96.9487 867.684 94.7562C871.059 93.4257 874.673 92.811 878.297 92.9506H887.096V68.3174H882.825C869.238 68.3174 861.731 72.9603 859.273 84.6967L856.036 69.3489H837.143V144.152Z" fill="#391145"/>
<path d="M979.366 145.57C990.755 145.57 999.944 140.412 1004.99 129.578C1007.58 124.033 1008.88 117.326 1008.88 108.814V106.621C1008.88 80.8273 997.743 67.8013 979.238 67.8013C967.85 67.8013 960.345 73.476 956.592 82.2461L954.391 69.3489H934.332V169.688H957.496V133.318C961.249 141.056 968.237 145.57 979.366 145.57ZM971.345 125.967C962.803 125.967 957.237 119.776 957.237 108.169V106.492C957.237 93.8532 962.931 87.6629 971.474 87.6629C979.626 87.6629 985.579 93.3373 985.579 106.621V108.427C985.579 120.163 980.013 125.967 971.345 125.967Z" fill="#391145"/>
<path d="M1093.38 120.422H1068.41C1066.72 124.677 1062.97 127.514 1056.37 127.514C1047.18 127.514 1042.13 122.872 1040.97 113.586H1093.9V105.203C1093.9 91.5321 1088.85 79.9247 1077.72 72.9601C1072.16 69.478 1064.91 67.8013 1056.11 67.8013C1040.45 67.8013 1028.81 74.1209 1022.33 85.7283C1019.1 91.4028 1017.55 98.2384 1017.55 106.363V108.556C1017.55 131.77 1029.58 146.086 1055.72 146.086C1077.72 146.086 1089.24 136.156 1093.38 120.422ZM1056.37 85.5992C1065.17 85.5992 1069.57 90.3713 1070.6 98.8835H1040.97C1042.52 89.8555 1047.7 85.5992 1056.37 85.5992Z" fill="#391145"/>
<path d="M909.219 65.0937C918.925 65.0937 923.325 61.9981 923.325 53.4861C923.325 44.7161 918.537 41.75 909.219 41.75C899.643 41.75 895.113 44.7161 895.113 53.4861C895.113 62.2561 898.866 65.0937 909.219 65.0937Z" fill="#391145"/>
<path d="M896.925 69.941V144.152H921.384V69.941C913.312 71.5644 904.997 71.5644 896.925 69.941Z" fill="#391145"/>
<path d="M506.158 69.941V144.152H530.617V69.941C522.545 71.5644 514.23 71.5644 506.158 69.941Z" fill="#391145"/>
</svg>
